<svg width="64" height="64" viewBox="0 0 64 64" fill="none" xmlns="http://www.w3.org/2000/svg">
  <rect x="6" y="6" width="52" height="52" rx="14" fill="#101014"/>
  <path d="M18 40C18 35.6 21.6 32 26 32H38C42.4 32 46 28.4 46 24C46 19.6 42.4 16 38 16H26C21.6 16 18 19.6 18 24" stroke="#F97316" stroke-width="4" stroke-linecap="round"/>
  <path d="M46 24C46 28.4 42.4 32 38 32H26C21.6 32 18 35.6 18 40C18 44.4 21.6 48 26 48H38C42.4 48 46 44.4 46 40" stroke="#3B82F6" stroke-width="4" stroke-linecap="round"/>
  <circle cx="18" cy="24" r="4" fill="#F97316"/>
  <circle cx="46" cy="40" r="4" fill="#8B5CF6"/>
</svg>
