<svg xmlns="http://www.w3.org/2000/svg" width="1200" height="630" viewBox="0 0 1200 630" role="img" aria-labelledby="title desc">
  <title id="title">Human Loop Protocol</title>
  <desc id="desc">Open graph image for Human Loop Protocol as a human interaction control plane for existing agent harnesses.</desc>
  <defs>
    <linearGradient id="og-top" x1="13" y1="14" x2="52" y2="41" gradientUnits="userSpaceOnUse">
      <stop stop-color="#22D3EE"/>
      <stop offset="1" stop-color="#3B82F6"/>
    </linearGradient>
    <linearGradient id="og-bottom" x1="13" y1="28" x2="50" y2="53" gradientUnits="userSpaceOnUse">
      <stop stop-color="#A855F7"/>
      <stop offset="1" stop-color="#3B82F6"/>
    </linearGradient>
    <linearGradient id="og-human" x1="24" y1="22" x2="40" y2="48" gradientUnits="userSpaceOnUse">
      <stop stop-color="#F59E0B"/>
      <stop offset="1" stop-color="#F97316"/>
    </linearGradient>
  </defs>
  <rect width="1200" height="630" fill="#101014"/>
  <rect x="64" y="64" width="1072" height="502" rx="18" fill="#15151b" stroke="#2f2f38" stroke-width="2"/>

  <!-- Loops mark -->
  <g transform="translate(104 92) scale(1.125)">
    <rect x="4" y="4" width="56" height="56" rx="14" fill="#101014" stroke="#2F2F38" stroke-width="1"/>
    <path d="M14 28V25C14 18.9 18.9 14 25 14H39C45.1 14 50 18.9 50 25V37" stroke="url(#og-top)" stroke-width="5.8" stroke-linecap="round" stroke-linejoin="round"/>
    <path d="M50 40L45.5 35.5H54.5L50 40Z" fill="#3B82F6"/>
    <path d="M50 42C50 48.1 45.1 53 39 53H25C18.9 53 14 48.1 14 42V30" stroke="url(#og-bottom)" stroke-width="5.8" stroke-linecap="round" stroke-linejoin="round"/>
    <path d="M14 28L9.5 32.5H18.5L14 28Z" fill="#A855F7"/>
    <rect x="28.2" y="10.2" width="8.2" height="8.2" rx="1.4" transform="rotate(45 32.3 14.3)" fill="#22D3EE"/>
    <circle cx="32" cy="28" r="6" fill="url(#og-human)"/>
    <path d="M21.5 44.5C21.5 37.5 25.8 34 32 34C38.2 34 42.5 37.5 42.5 44.5C42.5 46.2 41.2 47.5 39.5 47.5H24.5C22.8 47.5 21.5 46.2 21.5 44.5Z" fill="url(#og-human)"/>
    <circle cx="32" cy="53" r="4.2" fill="#101014" stroke="#2F2F38" stroke-width="1"/>
    <circle cx="32" cy="53" r="2.5" fill="#8B5CF6"/>
  </g>

  <text x="200" y="138" fill="#f4f4f5" font-family="Inter, ui-sans-serif, system-ui, sans-serif" font-size="58" font-weight="760">Human Loop Protocol</text>
  <text x="202" y="188" fill="#a1a1aa" font-family="Inter, ui-sans-serif, system-ui, sans-serif" font-size="25">Wrap existing agent harnesses with accountable human interaction</text>

  <g transform="translate(104 246)">
    <rect width="310" height="190" rx="14" fill="#211a34" stroke="#8b5cf6" stroke-width="3"/>
    <text x="28" y="58" fill="#c4b5fd" font-family="Inter, ui-sans-serif, system-ui, sans-serif" font-size="24" font-weight="760">L2 / HLP</text>
    <text x="28" y="104" fill="#f4f4f5" font-family="Inter, ui-sans-serif, system-ui, sans-serif" font-size="30" font-weight="760">Human loop</text>
    <text x="28" y="144" fill="#a1a1aa" font-family="Inter, ui-sans-serif, system-ui, sans-serif" font-size="20">Tasks, checkpoints,</text>
    <text x="28" y="174" fill="#a1a1aa" font-family="Inter, ui-sans-serif, system-ui, sans-serif" font-size="20">reviews, audit</text>
  </g>

  <g transform="translate(445 246)">
    <rect width="310" height="190" rx="14" fill="#13233c" stroke="#3b82f6" stroke-width="3"/>
    <text x="28" y="58" fill="#93c5fd" font-family="Inter, ui-sans-serif, system-ui, sans-serif" font-size="24" font-weight="760">L1 routes</text>
    <text x="28" y="104" fill="#f4f4f5" font-family="Inter, ui-sans-serif, system-ui, sans-serif" font-size="30" font-weight="760">Harnesses</text>
    <text x="28" y="144" fill="#a1a1aa" font-family="Inter, ui-sans-serif, system-ui, sans-serif" font-size="20">Discovery, delegation,</text>
    <text x="28" y="174" fill="#a1a1aa" font-family="Inter, ui-sans-serif, system-ui, sans-serif" font-size="20">block, resume, handoff</text>
  </g>

  <g transform="translate(786 246)">
    <rect width="310" height="190" rx="14" fill="#321b12" stroke="#f97316" stroke-width="3"/>
    <text x="28" y="58" fill="#fdba74" font-family="Inter, ui-sans-serif, system-ui, sans-serif" font-size="24" font-weight="760">L0 routes</text>
    <text x="28" y="104" fill="#f4f4f5" font-family="Inter, ui-sans-serif, system-ui, sans-serif" font-size="30" font-weight="760">Capabilities</text>
    <text x="28" y="144" fill="#a1a1aa" font-family="Inter, ui-sans-serif, system-ui, sans-serif" font-size="20">Manifests, schemas,</text>
    <text x="28" y="174" fill="#a1a1aa" font-family="Inter, ui-sans-serif, system-ui, sans-serif" font-size="20">invocation, errors</text>
  </g>

  <path d="M414 341H445" stroke="#06b6d4" stroke-width="4" stroke-linecap="round"/>
  <path d="M755 341H786" stroke="#06b6d4" stroke-width="4" stroke-linecap="round"/>
  <text x="104" y="506" fill="#06b6d4" font-family="Inter, ui-sans-serif, system-ui, sans-serif" font-size="22" font-weight="700">HLP -> harness route -> capability route</text>
  <text x="104" y="538" fill="#a1a1aa" font-family="Inter, ui-sans-serif, system-ui, sans-serif" font-size="19">HLP is the SDK/control plane; lower layers keep execution.</text>
</svg>
