<svg xmlns="http://www.w3.org/2000/svg" width="1200" height="630" viewBox="0 0 1200 630" role="img" aria-labelledby="title desc">
  <title id="title">Human Loop Protocol</title>
  <desc id="desc">Open graph image for Human Loop Protocol as a human interaction control plane for existing agent harnesses.</desc>
  <defs>
    <linearGradient id="og-loop" x1="10" y1="37" x2="54" y2="55" gradientUnits="userSpaceOnUse">
      <stop stop-color="#22D3EE"/>
      <stop offset="0.5" stop-color="#3B82F6"/>
      <stop offset="1" stop-color="#A855F7"/>
    </linearGradient>
    <linearGradient id="og-human" x1="24" y1="10" x2="40" y2="37" gradientUnits="userSpaceOnUse">
      <stop stop-color="#F59E0B"/>
      <stop offset="1" stop-color="#F97316"/>
    </linearGradient>
  </defs>
  <rect width="1200" height="630" fill="#101014"/>
  <rect x="64" y="64" width="1072" height="502" rx="18" fill="#15151b" stroke="#2f2f38" stroke-width="2"/>

  <!-- Loops mark -->
  <g transform="translate(104 92) scale(1.125)">
    <rect x="4" y="4" width="56" height="56" rx="14" fill="#101014" stroke="#2F2F38" stroke-width="1"/>
    <circle cx="32" cy="15.8" r="5.8" fill="url(#og-human)"/>
    <path d="M22 34.8C22 27.9 26 24.4 32 24.4C38 24.4 42 27.9 42 34.8C42 36.2 40.8 37.4 39.4 37.4H24.6C23.2 37.4 22 36.2 22 34.8Z" fill="url(#og-human)"/>
    <path d="M12 47C12 39 22 39 32 47C42 55 52 55 52 47" stroke="url(#og-loop)" stroke-width="5.6" stroke-linecap="round" stroke-linejoin="round"/>
    <path d="M52 47C52 39 42 39 32 47C22 55 12 55 12 47" stroke="url(#og-loop)" stroke-width="5.6" stroke-linecap="round" stroke-linejoin="round"/>
    <circle cx="12" cy="47" r="4.2" fill="#101014"/>
    <circle cx="12" cy="47" r="2.6" fill="#22D3EE"/>
    <circle cx="52" cy="47" r="4.2" fill="#101014"/>
    <circle cx="52" cy="47" r="2.6" fill="#22D3EE"/>
  </g>

  <text x="200" y="138" fill="#f4f4f5" font-family="Inter, ui-sans-serif, system-ui, sans-serif" font-size="58" font-weight="760">Human Loop Protocol</text>
  <text x="202" y="188" fill="#a1a1aa" font-family="Inter, ui-sans-serif, system-ui, sans-serif" font-size="25">Wrap existing agent harnesses with accountable human interaction</text>

  <g transform="translate(104 246)">
    <rect width="310" height="190" rx="14" fill="#211a34" stroke="#8b5cf6" stroke-width="3"/>
    <text x="28" y="58" fill="#c4b5fd" font-family="Inter, ui-sans-serif, system-ui, sans-serif" font-size="24" font-weight="760">L2 / HLP</text>
    <text x="28" y="104" fill="#f4f4f5" font-family="Inter, ui-sans-serif, system-ui, sans-serif" font-size="30" font-weight="760">Human loop</text>
    <text x="28" y="144" fill="#a1a1aa" font-family="Inter, ui-sans-serif, system-ui, sans-serif" font-size="20">Tasks, checkpoints,</text>
    <text x="28" y="174" fill="#a1a1aa" font-family="Inter, ui-sans-serif, system-ui, sans-serif" font-size="20">reviews, audit</text>
  </g>

  <g transform="translate(445 246)">
    <rect width="310" height="190" rx="14" fill="#13233c" stroke="#3b82f6" stroke-width="3"/>
    <text x="28" y="58" fill="#93c5fd" font-family="Inter, ui-sans-serif, system-ui, sans-serif" font-size="24" font-weight="760">L1 routes</text>
    <text x="28" y="104" fill="#f4f4f5" font-family="Inter, ui-sans-serif, system-ui, sans-serif" font-size="30" font-weight="760">Harnesses</text>
    <text x="28" y="144" fill="#a1a1aa" font-family="Inter, ui-sans-serif, system-ui, sans-serif" font-size="20">Discovery, delegation,</text>
    <text x="28" y="174" fill="#a1a1aa" font-family="Inter, ui-sans-serif, system-ui, sans-serif" font-size="20">block, resume, handoff</text>
  </g>

  <g transform="translate(786 246)">
    <rect width="310" height="190" rx="14" fill="#321b12" stroke="#f97316" stroke-width="3"/>
    <text x="28" y="58" fill="#fdba74" font-family="Inter, ui-sans-serif, system-ui, sans-serif" font-size="24" font-weight="760">L0 routes</text>
    <text x="28" y="104" fill="#f4f4f5" font-family="Inter, ui-sans-serif, system-ui, sans-serif" font-size="30" font-weight="760">Capabilities</text>
    <text x="28" y="144" fill="#a1a1aa" font-family="Inter, ui-sans-serif, system-ui, sans-serif" font-size="20">Manifests, schemas,</text>
    <text x="28" y="174" fill="#a1a1aa" font-family="Inter, ui-sans-serif, system-ui, sans-serif" font-size="20">invocation, errors</text>
  </g>

  <path d="M414 341H445" stroke="#06b6d4" stroke-width="4" stroke-linecap="round"/>
  <path d="M755 341H786" stroke="#06b6d4" stroke-width="4" stroke-linecap="round"/>
  <text x="104" y="506" fill="#06b6d4" font-family="Inter, ui-sans-serif, system-ui, sans-serif" font-size="22" font-weight="700">HLP -> harness route -> capability route</text>
  <text x="104" y="538" fill="#a1a1aa" font-family="Inter, ui-sans-serif, system-ui, sans-serif" font-size="19">HLP is the SDK/control plane; lower layers keep execution.</text>
</svg>
